<?xml version="1.0" encoding="UTF-8"?>
<svg xmlns="http://www.w3.org/2000/svg"
     xmlns:xlink="http://www.w3.org/1999/xlink"
     xmlns:gadfly="http://www.gadflyjl.org/ns"
     version="1.2"
     width="63.5mm" height="76.2mm" viewBox="0 0 63.5 76.2"
     stroke="none"
     fill="#000000"
     stroke-width="0.3"
     font-size="3.88"
>
<defs>
  <marker id="arrow" markerWidth="15" markerHeight="7" refX="5" refY="3.5" orient="auto" markerUnits="strokeWidth">
    <path d="M0,0 L15,3.5 L0,7 z" stroke="context-stroke" fill="context-stroke"/>
  </marker>
</defs>
<g class="plotroot xscalable yscalable" id="img-fab10b73-1">
  <g font-size="3.88" font-family="'PT Sans','Helvetica Neue','Helvetica',sans-serif" fill="#564A55" stroke="#000000" stroke-opacity="0.000" id="img-fab10b73-2">
    <g transform="translate(38.57,64.59)">
      <g class="primitive">
        <text text-anchor="middle" dy="0.6em">$z_i$</text>
      </g>
    </g>
  </g>
  <g class="guide xlabels" font-size="2.82" font-family="'PT Sans Caption','Helvetica Neue','Helvetica',sans-serif" fill="#6C606B" id="img-fab10b73-3">
    <g transform="translate(20.63,57.91)">
      <g class="primitive">
        <text text-anchor="middle" dy="0.6em">0</text>
      </g>
    </g>
    <g transform="translate(26.61,57.91)">
      <g class="primitive">
        <text text-anchor="middle" dy="0.6em">1</text>
      </g>
    </g>
    <g transform="translate(32.59,57.91)">
      <g class="primitive">
        <text text-anchor="middle" dy="0.6em">2</text>
      </g>
    </g>
    <g transform="translate(38.57,57.91)">
      <g class="primitive">
        <text text-anchor="middle" dy="0.6em">3</text>
      </g>
    </g>
    <g transform="translate(44.54,57.91)">
      <g class="primitive">
        <text text-anchor="middle" dy="0.6em">4</text>
      </g>
    </g>
    <g transform="translate(50.52,57.91)">
      <g class="primitive">
        <text text-anchor="middle" dy="0.6em">5</text>
      </g>
    </g>
    <g transform="translate(56.5,57.91)">
      <g class="primitive">
        <text text-anchor="middle" dy="0.6em">6</text>
      </g>
    </g>
  </g>
  <g clip-path="url(#img-fab10b73-4)">
    <g id="img-fab10b73-5">
      <g pointer-events="visible" stroke-width="0.3" fill="#000000" fill-opacity="0.000" stroke="#000000" stroke-opacity="0.000" class="guide background" id="img-fab10b73-6">
        <g transform="translate(38.57,36.58)" id="img-fab10b73-7">
          <path d="M-19.93,-20.34 L19.93,-20.34 19.93,20.34 -19.93,20.34  z" class="primitive"/>
        </g>
      </g>
      <g class="guide ygridlines xfixed" stroke-dasharray="0.5,0.5" stroke-width="0.2" stroke="#D0D0E0" id="img-fab10b73-8">
        <g transform="translate(38.57,54.91)" id="img-fab10b73-9">
          <path fill="none" d="M-19.93,0 L19.93,0 " class="primitive"/>
        </g>
        <g transform="translate(38.57,36.58)" id="img-fab10b73-10">
          <path fill="none" d="M-19.93,0 L19.93,0 " class="primitive"/>
        </g>
        <g transform="translate(38.57,18.24)" id="img-fab10b73-11">
          <path fill="none" d="M-19.93,0 L19.93,0 " class="primitive"/>
        </g>
      </g>
      <g class="guide xgridlines yfixed" stroke-dasharray="0.5,0.5" stroke-width="0.2" stroke="#D0D0E0" id="img-fab10b73-12">
        <g transform="translate(20.63,36.58)" id="img-fab10b73-13">
          <path fill="none" d="M0,-20.34 L0,20.34 " class="primitive"/>
        </g>
        <g transform="translate(26.61,36.58)" id="img-fab10b73-14">
          <path fill="none" d="M0,-20.34 L0,20.34 " class="primitive"/>
        </g>
        <g transform="translate(32.59,36.58)" id="img-fab10b73-15">
          <path fill="none" d="M0,-20.34 L0,20.34 " class="primitive"/>
        </g>
        <g transform="translate(38.57,36.58)" id="img-fab10b73-16">
          <path fill="none" d="M0,-20.34 L0,20.34 " class="primitive"/>
        </g>
        <g transform="translate(44.54,36.58)" id="img-fab10b73-17">
          <path fill="none" d="M0,-20.34 L0,20.34 " class="primitive"/>
        </g>
        <g transform="translate(50.52,36.58)" id="img-fab10b73-18">
          <path fill="none" d="M0,-20.34 L0,20.34 " class="primitive"/>
        </g>
        <g transform="translate(56.5,36.58)" id="img-fab10b73-19">
          <path fill="none" d="M0,-20.34 L0,20.34 " class="primitive"/>
        </g>
      </g>
      <g class="plotpanel" id="img-fab10b73-20">
        <metadata>
          <boundingbox value="18.631666666666668mm 16.23833333333333mm 39.86833333333333mm 40.67666666666666mm"/>
          <unitbox value="-0.33455694437990796 1.0545305825683904 6.669113888759815 -1.109061165136781"/>
        </metadata>
        <g stroke-width="0.3" fill="#000000" fill-opacity="0.000" class="geometry" id="img-fab10b73-21">
          <g class="color_$x_{i5}_=_0$" stroke-dasharray="none" stroke="#D4CA3A" id="img-fab10b73-22">
            <g transform="translate(38.57,44.4)" id="img-fab10b73-23">
              <path fill="none" d="M-17.93,-26.17 L-17.2,-26.15 -16.47,-25.89 -15.74,-25.01 -15.01,-23.46 -14.27,-21.42 -13.54,-19.11 -12.81,-16.69 -12.08,-14.3 -11.35,-12.01 -10.61,-9.86 -9.88,-7.87 -9.15,-6.06 -8.42,-4.41 -7.69,-2.93 -6.95,-1.59 -6.22,-0.39 -5.49,0.68 -4.76,1.64 -4.03,2.5 -3.29,3.27 -2.56,3.96 -1.83,4.58 -1.1,5.13 -0.37,5.63 0.37,6.07 1.1,6.47 1.83,6.83 2.56,7.16 3.29,7.45 4.03,7.71 4.76,7.95 5.49,8.17 6.22,8.36 6.95,8.54 7.69,8.7 8.42,8.84 9.15,8.98 9.88,9.1 10.61,9.21 11.35,9.31 12.08,9.4 12.81,9.48 13.54,9.56 14.27,9.63 15.01,9.7 15.74,9.75 16.47,9.81 17.2,9.86 17.93,9.9 " class="primitive"/>
            </g>
          </g>
        </g>
        <g stroke-width="0.3" fill="#000000" fill-opacity="0.000" class="geometry" id="img-fab10b73-24">
          <g class="color_$x_{i5}_=_1$" stroke-dasharray="none" stroke="#00BFFF" id="img-fab10b73-25">
            <g transform="translate(38.57,44.11)" id="img-fab10b73-26">
              <path fill="none" d="M-17.93,-25.87 L-17.2,-25.14 -16.47,-22.98 -15.74,-20.34 -15.01,-17.72 -14.27,-15.26 -13.54,-13.04 -12.81,-11.04 -12.08,-9.26 -11.35,-7.66 -10.61,-6.24 -9.88,-4.96 -9.15,-3.82 -8.42,-2.79 -7.69,-1.86 -6.95,-1.02 -6.22,-0.25 -5.49,0.44 -4.76,1.08 -4.03,1.66 -3.29,2.19 -2.56,2.68 -1.83,3.13 -1.1,3.54 -0.37,3.93 0.37,4.28 1.1,4.61 1.83,4.92 2.56,5.2 3.29,5.47 4.03,5.72 4.76,5.95 5.49,6.17 6.22,6.37 6.95,6.57 7.69,6.75 8.42,6.91 9.15,7.07 9.88,7.22 10.61,7.37 11.35,7.5 12.08,7.63 12.81,7.75 13.54,7.86 14.27,7.97 15.01,8.07 15.74,8.17 16.47,8.26 17.2,8.35 17.93,8.44 " class="primitive"/>
            </g>
          </g>
        </g>
      </g>
    </g>
  </g>
  <g class="guide ylabels" font-size="2.82" font-family="'PT Sans Caption','Helvetica Neue','Helvetica',sans-serif" fill="#6C606B" id="img-fab10b73-27">
    <g transform="translate(17.63,54.91)" id="img-fab10b73-28">
      <g class="primitive">
        <text text-anchor="end" dy="0.35em">0.0</text>
      </g>
    </g>
    <g transform="translate(17.63,36.58)" id="img-fab10b73-29">
      <g class="primitive">
        <text text-anchor="end" dy="0.35em">0.5</text>
      </g>
    </g>
    <g transform="translate(17.63,18.24)" id="img-fab10b73-30">
      <g class="primitive">
        <text text-anchor="end" dy="0.35em">1.0</text>
      </g>
    </g>
  </g>
  <g font-size="3.88" font-family="'PT Sans','Helvetica Neue','Helvetica',sans-serif" fill="#564A55" stroke="#000000" stroke-opacity="0.000" id="img-fab10b73-31">
    <g transform="translate(8.81,34.58)" id="img-fab10b73-32">
      <g class="primitive">
        <text text-anchor="middle" dy="0.35em" transform="rotate(-90,0, 2)">survival function</text>
      </g>
    </g>
  </g>
  <g class="guide colorkey" id="img-fab10b73-33">
    <g class="color_$x_{i5}_=_0$" id="img-fab10b73-34">
      <g fill="#4C404B" font-size="2.82" font-family="'PT Sans','Helvetica Neue','Helvetica',sans-serif" id="img-fab10b73-35">
        <g transform="translate(40.67,12.43)" id="img-fab10b73-36">
          <g class="primitive">
            <text dy="0.35em">$x_{i5} = 0$</text>
          </g>
        </g>
      </g>
      <g fill-opacity="1" fill="#D4CA3A" stroke="#FFFFFF" id="img-fab10b73-37">
        <g transform="translate(38.76,12.43)" id="img-fab10b73-38">
          <path d="M-0.91,-0.91 L0.91,-0.91 0.91,0.91 -0.91,0.91  z" class="primitive"/>
        </g>
      </g>
    </g>
    <g class="color_$x_{i5}_=_1$" id="img-fab10b73-39">
      <g fill="#4C404B" font-size="2.82" font-family="'PT Sans','Helvetica Neue','Helvetica',sans-serif" id="img-fab10b73-40">
        <g transform="translate(22.44,12.43)" id="img-fab10b73-41">
          <g class="primitive">
            <text dy="0.35em">$x_{i5} = 1$</text>
          </g>
        </g>
      </g>
      <g fill-opacity="1" fill="#00BFFF" stroke="#FFFFFF" id="img-fab10b73-42">
        <g transform="translate(20.54,12.43)" id="img-fab10b73-43">
          <path d="M-0.91,-0.91 L0.91,-0.91 0.91,0.91 -0.91,0.91  z" class="primitive"/>
        </g>
      </g>
    </g>
    <g fill="#362A35" font-size="3.88" font-family="'PT Sans','Helvetica Neue','Helvetica',sans-serif" stroke="#000000" stroke-opacity="0.000" id="img-fab10b73-44">
      <g transform="translate(19.63,8.61)" id="img-fab10b73-45">
        <g class="primitive">
          <text dy="-0em">Color</text>
        </g>
      </g>
    </g>
  </g>
</g>
<defs>
  <clipPath id="img-fab10b73-4">
    <path d="M18.63,16.24 L58.5,16.24 58.5,56.91 18.63,56.91 " />
  </clipPath>
</defs>
</svg>
