<?xml version="1.0" encoding="UTF-8"?>
<svg xmlns="http://www.w3.org/2000/svg"
     xmlns:xlink="http://www.w3.org/1999/xlink"
     xmlns:gadfly="http://www.gadflyjl.org/ns"
     version="1.2"
     width="140mm" height="80mm" viewBox="0 0 140 80"
     stroke="none"
     fill="#000000"
     stroke-width="0.3"
     font-size="3.88"
>
<defs>
  <marker id="arrow" markerWidth="15" markerHeight="7" refX="5" refY="3.5" orient="auto" markerUnits="strokeWidth">
    <path d="M0,0 L15,3.5 L0,7 z" stroke="context-stroke" fill="context-stroke"/>
  </marker>
</defs>
<g class="plotroot xscalable yscalable" id="img-c6368014-1">
  <g font-size="3.88" font-family="'PT Sans','Helvetica Neue','Helvetica',sans-serif" fill="#564A55" stroke="#000000" stroke-opacity="0.000" id="img-c6368014-2">
    <g transform="translate(68.48,68.39)">
      <g class="primitive">
        <text text-anchor="middle" dy="0.6em">x <tspan font-style="italic"><tspan font-weight="bold">by</tspan></tspan> xgroup</text>
      </g>
    </g>
  </g>
  <g class="guide colorkey" id="img-c6368014-3">
    <g fill="#4C404B" font-size="2.82" font-family="'PT Sans','Helvetica Neue','Helvetica',sans-serif" id="img-c6368014-4">
      <g transform="translate(129.98,35.19)" id="img-c6368014-5" class="color_-0.5">
        <g class="primitive">
          <text dy="0.35em">-0.5</text>
        </g>
      </g>
      <g transform="translate(129.98,38.82)" id="img-c6368014-6" class="color_0.5">
        <g class="primitive">
          <text dy="0.35em">0.5</text>
        </g>
      </g>
    </g>
    <g fill-opacity="1" id="img-c6368014-7">
      <g transform="translate(128.07,35.19)" id="img-c6368014-8" class="color_-0.5" fill="#00BFFF" stroke="#FFFFFF">
        <path d="M-0.91,-0.91 L0.91,-0.91 0.91,0.91 -0.91,0.91  z" class="primitive"/>
      </g>
      <g transform="translate(128.07,38.82)" id="img-c6368014-9" class="color_0.5" fill="#D4CA3A" stroke="#FFFFFF">
        <path d="M-0.91,-0.91 L0.91,-0.91 0.91,0.91 -0.91,0.91  z" class="primitive"/>
      </g>
    </g>
    <g fill="#362A35" font-size="3.88" font-family="'PT Sans','Helvetica Neue','Helvetica',sans-serif" stroke="#000000" stroke-opacity="0.000" id="img-c6368014-10">
      <g transform="translate(127.16,31.37)" id="img-c6368014-11">
        <g class="primitive">
          <text dy="-0em">Color</text>
        </g>
      </g>
    </g>
  </g>
  <g clip-path="url(#img-c6368014-12)">
    <g id="img-c6368014-13">
      <g class="plotpanel" id="img-c6368014-14">
        <metadata>
          <boundingbox value="10.80583333333334mm 5.0mm 115.3575mm 60.388333333333335mm"/>
          <unitbox value="0.0 0.0 1.0 1.0"/>
        </metadata>
        <g font-size="3.88" font-family="'PT Sans','Helvetica Neue','Helvetica',sans-serif" fill="#564A55" stroke="#000000" stroke-opacity="0.000" id="img-c6368014-15">
          <g transform="translate(98.83,58.78)" id="img-c6368014-16">
            <g class="primitive">
              <text text-anchor="middle" dy="0.6em">0.5</text>
            </g>
          </g>
        </g>
        <g font-size="3.88" font-family="'PT Sans','Helvetica Neue','Helvetica',sans-serif" fill="#564A55" stroke="#000000" stroke-opacity="0.000" id="img-c6368014-17">
          <g transform="translate(43.16,58.78)" id="img-c6368014-18">
            <g class="primitive">
              <text text-anchor="middle" dy="0.6em">-0.5</text>
            </g>
          </g>
        </g>
        <g class="guide xlabels" font-size="2.82" font-family="'PT Sans Caption','Helvetica Neue','Helvetica',sans-serif" fill="#6C606B" id="img-c6368014-19">
          <g transform="translate(75.49,52.1)" id="img-c6368014-20">
            <g class="primitive">
              <text text-anchor="middle" dy="0.6em">-2</text>
            </g>
          </g>
          <g transform="translate(87.16,52.1)" id="img-c6368014-21">
            <g class="primitive">
              <text text-anchor="middle" dy="0.6em">0</text>
            </g>
          </g>
          <g transform="translate(98.83,52.1)" id="img-c6368014-22">
            <g class="primitive">
              <text text-anchor="middle" dy="0.6em">2</text>
            </g>
          </g>
          <g transform="translate(110.5,52.1)" id="img-c6368014-23">
            <g class="primitive">
              <text text-anchor="middle" dy="0.6em">4</text>
            </g>
          </g>
          <g transform="translate(122.16,52.1)" id="img-c6368014-24">
            <g class="primitive">
              <text text-anchor="middle" dy="0.6em">6</text>
            </g>
          </g>
        </g>
        <g class="guide xlabels" font-size="2.82" font-family="'PT Sans Caption','Helvetica Neue','Helvetica',sans-serif" fill="#6C606B" id="img-c6368014-25">
          <g transform="translate(18.83,52.1)" id="img-c6368014-26">
            <g class="primitive">
              <text text-anchor="middle" dy="0.6em">-2</text>
            </g>
          </g>
          <g transform="translate(30.99,52.1)" id="img-c6368014-27">
            <g class="primitive">
              <text text-anchor="middle" dy="0.6em">0</text>
            </g>
          </g>
          <g transform="translate(43.16,52.1)" id="img-c6368014-28">
            <g class="primitive">
              <text text-anchor="middle" dy="0.6em">2</text>
            </g>
          </g>
          <g transform="translate(55.33,52.1)" id="img-c6368014-29">
            <g class="primitive">
              <text text-anchor="middle" dy="0.6em">4</text>
            </g>
          </g>
          <g transform="translate(67.49,52.1)" id="img-c6368014-30">
            <g class="primitive">
              <text text-anchor="middle" dy="0.6em">6</text>
            </g>
          </g>
        </g>
        <g clip-path="url(#img-c6368014-31)">
          <g id="img-c6368014-32">
            <g pointer-events="visible" stroke-width="0.3" fill="#000000" fill-opacity="0.000" stroke="#000000" stroke-opacity="0.000" class="guide background" id="img-c6368014-33">
              <g transform="translate(98.83,29.05)" id="img-c6368014-34">
                <path d="M-25.33,-22.05 L25.33,-22.05 25.33,22.05 -25.33,22.05  z" class="primitive"/>
              </g>
            </g>
            <g class="guide ygridlines xfixed" stroke-dasharray="0.5,0.5" stroke-width="0.2" stroke="#D0D0E0" id="img-c6368014-35">
              <g transform="translate(98.83,49.1)" id="img-c6368014-36">
                <path fill="none" d="M-25.33,0 L25.33,0 " class="primitive"/>
              </g>
              <g transform="translate(98.83,41.08)" id="img-c6368014-37">
                <path fill="none" d="M-25.33,0 L25.33,0 " class="primitive"/>
              </g>
              <g transform="translate(98.83,33.06)" id="img-c6368014-38">
                <path fill="none" d="M-25.33,0 L25.33,0 " class="primitive"/>
              </g>
              <g transform="translate(98.83,25.04)" id="img-c6368014-39">
                <path fill="none" d="M-25.33,0 L25.33,0 " class="primitive"/>
              </g>
              <g transform="translate(98.83,17.02)" id="img-c6368014-40">
                <path fill="none" d="M-25.33,0 L25.33,0 " class="primitive"/>
              </g>
              <g transform="translate(98.83,9)" id="img-c6368014-41">
                <path fill="none" d="M-25.33,0 L25.33,0 " class="primitive"/>
              </g>
            </g>
            <g class="guide xgridlines yfixed" stroke-dasharray="0.5,0.5" stroke-width="0.2" stroke="#D0D0E0" id="img-c6368014-42">
              <g transform="translate(75.49,29.05)" id="img-c6368014-43">
                <path fill="none" d="M0,-22.05 L0,22.05 " class="primitive"/>
              </g>
              <g transform="translate(87.16,29.05)" id="img-c6368014-44">
                <path fill="none" d="M0,-22.05 L0,22.05 " class="primitive"/>
              </g>
              <g transform="translate(98.83,29.05)" id="img-c6368014-45">
                <path fill="none" d="M0,-22.05 L0,22.05 " class="primitive"/>
              </g>
              <g transform="translate(110.5,29.05)" id="img-c6368014-46">
                <path fill="none" d="M0,-22.05 L0,22.05 " class="primitive"/>
              </g>
              <g transform="translate(122.16,29.05)" id="img-c6368014-47">
                <path fill="none" d="M0,-22.05 L0,22.05 " class="primitive"/>
              </g>
            </g>
            <g class="plotpanel" id="img-c6368014-48">
              <metadata>
                <boundingbox value="73.49458333333334mm 7.0mm 50.66875mm 44.10333333333334mm"/>
                <unitbox value="-2.3428418374179723 0.5249355830770509 8.685683674835945 -0.5498711661541019"/>
              </metadata>
              <g stroke-width="0.3" fill="#000000" fill-opacity="0.000" class="geometry" id="img-c6368014-49">
                <g transform="translate(97.53,37.51)" id="img-c6368014-50" class="color_-0.5" stroke-dasharray="none" stroke="#00BFFF">
                  <path fill="none" d="M-19.62,10.56 L-18.81,9.87 -18.01,8.44 -17.21,5.58 -16.41,0.46 -15.61,-7.19 -14.81,-16.04 -14.01,-22.92 -13.21,-24.67 -12.41,-20.64 -11.61,-13.44 -10.81,-6.98 -10.01,-4.49 -9.21,-7.35 -8.41,-14.01 -7.61,-19.61 -6.81,-19.47 -6,-13.72 -5.2,-6.7 -4.4,-2.08 -3.6,-0.36 -2.8,-0.33 -2,-0.82 -1.2,-1.26 -0.4,-1.42 0.4,-1.26 1.2,-0.81 2,-0.14 2.8,0.69 3.6,1.59 4.4,2.52 5.2,3.44 6,4.32 6.81,5.17 7.61,5.97 8.41,6.71 9.21,7.41 10.01,8.04 10.81,8.61 11.61,9.12 12.41,9.57 13.21,9.96 14.01,10.29 14.81,10.56 15.61,10.79 16.41,10.97 17.21,11.12 18.01,11.23 18.81,11.32 19.62,11.39 " class="primitive"/>
                </g>
                <g transform="translate(97.53,37.44)" id="img-c6368014-51" class="color_0.5" stroke-dasharray="none" stroke="#D4CA3A">
                  <path fill="none" d="M-19.62,11.47 L-18.81,11.32 -18.01,11 -17.21,10.34 -16.41,9.09 -15.61,7.14 -14.81,4.76 -14.01,2.73 -13.21,1.89 -12.41,2.37 -11.61,3.35 -10.81,3.38 -10.01,0.81 -9.21,-5.46 -8.41,-14.28 -7.61,-21.28 -6.81,-22.13 -6,-17.13 -5.2,-10.71 -4.4,-6.6 -3.6,-5.33 -2.8,-5.72 -2,-6.63 -1.2,-7.54 -0.4,-8.25 0.4,-8.68 1.2,-8.82 2,-8.65 2.8,-8.19 3.6,-7.45 4.4,-6.48 5.2,-5.3 6,-3.96 6.81,-2.52 7.61,-1.03 8.41,0.47 9.21,1.94 10.01,3.34 10.81,4.64 11.61,5.82 12.41,6.88 13.21,7.8 14.01,8.58 14.81,9.25 15.61,9.79 16.41,10.24 17.21,10.59 18.01,10.87 18.81,11.08 19.62,11.24 " class="primitive"/>
                </g>
              </g>
            </g>
          </g>
        </g>
        <g clip-path="url(#img-c6368014-52)">
          <g id="img-c6368014-53">
            <g pointer-events="visible" stroke-width="0.3" fill="#000000" fill-opacity="0.000" stroke="#000000" stroke-opacity="0.000" class="guide background" id="img-c6368014-54">
              <g transform="translate(43.16,29.05)" id="img-c6368014-55">
                <path d="M-26.33,-22.05 L26.33,-22.05 26.33,22.05 -26.33,22.05  z" class="primitive"/>
              </g>
            </g>
            <g class="guide ygridlines xfixed" stroke-dasharray="0.5,0.5" stroke-width="0.2" stroke="#D0D0E0" id="img-c6368014-56">
              <g transform="translate(43.16,49.1)" id="img-c6368014-57">
                <path fill="none" d="M-26.33,0 L26.33,0 " class="primitive"/>
              </g>
              <g transform="translate(43.16,41.08)" id="img-c6368014-58">
                <path fill="none" d="M-26.33,0 L26.33,0 " class="primitive"/>
              </g>
              <g transform="translate(43.16,33.06)" id="img-c6368014-59">
                <path fill="none" d="M-26.33,0 L26.33,0 " class="primitive"/>
              </g>
              <g transform="translate(43.16,25.04)" id="img-c6368014-60">
                <path fill="none" d="M-26.33,0 L26.33,0 " class="primitive"/>
              </g>
              <g transform="translate(43.16,17.02)" id="img-c6368014-61">
                <path fill="none" d="M-26.33,0 L26.33,0 " class="primitive"/>
              </g>
              <g transform="translate(43.16,9)" id="img-c6368014-62">
                <path fill="none" d="M-26.33,0 L26.33,0 " class="primitive"/>
              </g>
            </g>
            <g class="guide xgridlines yfixed" stroke-dasharray="0.5,0.5" stroke-width="0.2" stroke="#D0D0E0" id="img-c6368014-63">
              <g transform="translate(18.83,29.05)" id="img-c6368014-64">
                <path fill="none" d="M0,-22.05 L0,22.05 " class="primitive"/>
              </g>
              <g transform="translate(30.99,29.05)" id="img-c6368014-65">
                <path fill="none" d="M0,-22.05 L0,22.05 " class="primitive"/>
              </g>
              <g transform="translate(43.16,29.05)" id="img-c6368014-66">
                <path fill="none" d="M0,-22.05 L0,22.05 " class="primitive"/>
              </g>
              <g transform="translate(55.33,29.05)" id="img-c6368014-67">
                <path fill="none" d="M0,-22.05 L0,22.05 " class="primitive"/>
              </g>
              <g transform="translate(67.49,29.05)" id="img-c6368014-68">
                <path fill="none" d="M0,-22.05 L0,22.05 " class="primitive"/>
              </g>
            </g>
            <g class="plotpanel" id="img-c6368014-69">
              <metadata>
                <boundingbox value="16.825833333333343mm 7.0mm 52.66875mm 44.10333333333334mm"/>
                <unitbox value="-2.3287530499550533 0.5249355830770509 8.657506099910107 -0.5498711661541019"/>
              </metadata>
              <g stroke-width="0.3" fill="#000000" fill-opacity="0.000" class="geometry" id="img-c6368014-70">
                <g transform="translate(41.81,37.51)" id="img-c6368014-71" class="color_-0.5" stroke-dasharray="none" stroke="#00BFFF">
                  <path fill="none" d="M-20.46,10.56 L-19.62,9.88 -18.79,8.45 -17.95,5.59 -17.12,0.47 -16.28,-7.18 -15.45,-16.03 -14.61,-22.91 -13.78,-24.65 -12.94,-20.63 -12.11,-13.43 -11.27,-6.98 -10.44,-4.48 -9.6,-7.36 -8.77,-14.02 -7.93,-19.63 -7.1,-19.49 -6.26,-13.73 -5.43,-6.7 -4.59,-2.08 -3.76,-0.36 -2.92,-0.33 -2.09,-0.82 -1.25,-1.26 -0.42,-1.42 0.42,-1.26 1.25,-0.81 2.09,-0.14 2.92,0.69 3.76,1.59 4.59,2.52 5.43,3.43 6.26,4.32 7.1,5.16 7.93,5.96 8.77,6.71 9.6,7.4 10.44,8.04 11.27,8.61 12.11,9.12 12.94,9.57 13.78,9.96 14.61,10.29 15.45,10.56 16.28,10.79 17.12,10.97 17.95,11.12 18.79,11.23 19.62,11.32 20.46,11.39 " class="primitive"/>
                </g>
                <g transform="translate(41.81,37.44)" id="img-c6368014-72" class="color_0.5" stroke-dasharray="none" stroke="#D4CA3A">
                  <path fill="none" d="M-20.46,11.47 L-19.62,11.32 -18.79,11 -17.95,10.34 -17.12,9.1 -16.28,7.15 -15.45,4.77 -14.61,2.75 -13.78,1.91 -12.94,2.38 -12.11,3.36 -11.27,3.39 -10.44,0.82 -9.6,-5.46 -8.77,-14.26 -7.93,-21.27 -7.1,-22.12 -6.26,-17.12 -5.43,-10.71 -4.59,-6.61 -3.76,-5.34 -2.92,-5.72 -2.09,-6.64 -1.25,-7.55 -0.42,-8.26 0.42,-8.69 1.25,-8.83 2.09,-8.66 2.92,-8.2 3.76,-7.46 4.59,-6.49 5.43,-5.31 6.26,-3.97 7.1,-2.53 7.93,-1.04 8.77,0.47 9.6,1.94 10.44,3.33 11.27,4.64 12.11,5.82 12.94,6.87 13.78,7.79 14.61,8.58 15.45,9.24 16.28,9.79 17.12,10.24 17.95,10.59 18.79,10.87 19.62,11.08 20.46,11.24 " class="primitive"/>
                </g>
              </g>
            </g>
          </g>
        </g>
        <g class="guide ylabels" font-size="2.82" font-family="'PT Sans Caption','Helvetica Neue','Helvetica',sans-serif" fill="#6C606B" id="img-c6368014-73">
          <g transform="translate(15.83,49.1)" id="img-c6368014-74">
            <g class="primitive">
              <text text-anchor="end" dy="0.35em">0.0</text>
            </g>
          </g>
          <g transform="translate(15.83,41.08)" id="img-c6368014-75">
            <g class="primitive">
              <text text-anchor="end" dy="0.35em">0.1</text>
            </g>
          </g>
          <g transform="translate(15.83,33.06)" id="img-c6368014-76">
            <g class="primitive">
              <text text-anchor="end" dy="0.35em">0.2</text>
            </g>
          </g>
          <g transform="translate(15.83,25.04)" id="img-c6368014-77">
            <g class="primitive">
              <text text-anchor="end" dy="0.35em">0.3</text>
            </g>
          </g>
          <g transform="translate(15.83,17.02)" id="img-c6368014-78">
            <g class="primitive">
              <text text-anchor="end" dy="0.35em">0.4</text>
            </g>
          </g>
          <g transform="translate(15.83,9)" id="img-c6368014-79">
            <g class="primitive">
              <text text-anchor="end" dy="0.35em">0.5</text>
            </g>
          </g>
        </g>
      </g>
    </g>
  </g>
  <g font-size="3.88" font-family="'PT Sans','Helvetica Neue','Helvetica',sans-serif" fill="#564A55" stroke="#000000" stroke-opacity="0.000" id="img-c6368014-80">
    <g transform="translate(8.81,35.19)" id="img-c6368014-81">
      <g class="primitive">
        <text text-anchor="end" dy="0.35em">y</text>
      </g>
    </g>
  </g>
</g>
<defs>
  <clipPath id="img-c6368014-12">
    <path d="M10.81,5 L126.16,5 126.16,65.39 10.81,65.39 " />
  </clipPath>
  <clipPath id="img-c6368014-31">
    <path d="M73.49,7 L124.16,7 124.16,51.1 73.49,51.1 " />
  </clipPath>
  <clipPath id="img-c6368014-52">
    <path d="M16.83,7 L69.49,7 69.49,51.1 16.83,51.1 " />
  </clipPath>
</defs>
</svg>
