<?xml version="1.0" encoding="UTF-8"?>
<svg xmlns="http://www.w3.org/2000/svg"
     xmlns:xlink="http://www.w3.org/1999/xlink"
     xmlns:gadfly="http://www.gadflyjl.org/ns"
     version="1.2"
     width="63.5mm" height="76.2mm" viewBox="0 0 63.5 76.2"
     stroke="none"
     fill="#000000"
     stroke-width="0.3"
     font-size="3.88"
>
<defs>
  <marker id="arrow" markerWidth="15" markerHeight="7" refX="5" refY="3.5" orient="auto" markerUnits="strokeWidth">
    <path d="M0,0 L15,3.5 L0,7 z" stroke="context-stroke" fill="context-stroke"/>
  </marker>
</defs>
<g class="plotroot xscalable yscalable" id="img-06117336-1">
  <g font-size="3.88" font-family="'PT Sans','Helvetica Neue','Helvetica',sans-serif" fill="#564A55" stroke="#000000" stroke-opacity="0.000" id="img-06117336-2">
    <g transform="translate(38.23,64.59)">
      <g class="primitive">
        <text text-anchor="middle" dy="0.6em">$z_i$</text>
      </g>
    </g>
  </g>
  <g class="guide xlabels" font-size="2.82" font-family="'PT Sans Caption','Helvetica Neue','Helvetica',sans-serif" fill="#6C606B" id="img-06117336-3">
    <g transform="translate(19.96,57.91)">
      <g class="primitive">
        <text text-anchor="middle" dy="0.6em">0</text>
      </g>
    </g>
    <g transform="translate(26.05,57.91)">
      <g class="primitive">
        <text text-anchor="middle" dy="0.6em">1</text>
      </g>
    </g>
    <g transform="translate(32.14,57.91)">
      <g class="primitive">
        <text text-anchor="middle" dy="0.6em">2</text>
      </g>
    </g>
    <g transform="translate(38.23,57.91)">
      <g class="primitive">
        <text text-anchor="middle" dy="0.6em">3</text>
      </g>
    </g>
    <g transform="translate(44.32,57.91)">
      <g class="primitive">
        <text text-anchor="middle" dy="0.6em">4</text>
      </g>
    </g>
    <g transform="translate(50.41,57.91)">
      <g class="primitive">
        <text text-anchor="middle" dy="0.6em">5</text>
      </g>
    </g>
    <g transform="translate(56.5,57.91)">
      <g class="primitive">
        <text text-anchor="middle" dy="0.6em">6</text>
      </g>
    </g>
  </g>
  <g clip-path="url(#img-06117336-4)">
    <g id="img-06117336-5">
      <g pointer-events="visible" stroke-width="0.3" fill="#000000" fill-opacity="0.000" stroke="#000000" stroke-opacity="0.000" class="guide background" id="img-06117336-6">
        <g transform="translate(38.23,30.96)" id="img-06117336-7">
          <path d="M-20.27,-25.96 L20.27,-25.96 20.27,25.96 -20.27,25.96  z" class="primitive"/>
        </g>
      </g>
      <g class="guide ygridlines xfixed" stroke-dasharray="0.5,0.5" stroke-width="0.2" stroke="#D0D0E0" id="img-06117336-8">
        <g transform="translate(38.23,54.91)" id="img-06117336-9">
          <path fill="none" d="M-20.27,0 L20.27,0 " class="primitive"/>
        </g>
        <g transform="translate(38.23,38.94)" id="img-06117336-10">
          <path fill="none" d="M-20.27,0 L20.27,0 " class="primitive"/>
        </g>
        <g transform="translate(38.23,22.97)" id="img-06117336-11">
          <path fill="none" d="M-20.27,0 L20.27,0 " class="primitive"/>
        </g>
        <g transform="translate(38.23,7)" id="img-06117336-12">
          <path fill="none" d="M-20.27,0 L20.27,0 " class="primitive"/>
        </g>
      </g>
      <g class="guide xgridlines yfixed" stroke-dasharray="0.5,0.5" stroke-width="0.2" stroke="#D0D0E0" id="img-06117336-13">
        <g transform="translate(19.96,30.96)" id="img-06117336-14">
          <path fill="none" d="M0,-25.96 L0,25.96 " class="primitive"/>
        </g>
        <g transform="translate(26.05,30.96)" id="img-06117336-15">
          <path fill="none" d="M0,-25.96 L0,25.96 " class="primitive"/>
        </g>
        <g transform="translate(32.14,30.96)" id="img-06117336-16">
          <path fill="none" d="M0,-25.96 L0,25.96 " class="primitive"/>
        </g>
        <g transform="translate(38.23,30.96)" id="img-06117336-17">
          <path fill="none" d="M0,-25.96 L0,25.96 " class="primitive"/>
        </g>
        <g transform="translate(44.32,30.96)" id="img-06117336-18">
          <path fill="none" d="M0,-25.96 L0,25.96 " class="primitive"/>
        </g>
        <g transform="translate(50.41,30.96)" id="img-06117336-19">
          <path fill="none" d="M0,-25.96 L0,25.96 " class="primitive"/>
        </g>
        <g transform="translate(56.5,30.96)" id="img-06117336-20">
          <path fill="none" d="M0,-25.96 L0,25.96 " class="primitive"/>
        </g>
      </g>
      <g class="plotpanel" id="img-06117336-21">
        <metadata>
          <boundingbox value="17.95833333333333mm 5.0mm 40.54166666666667mm 51.91499999999999mm"/>
          <unitbox value="-0.3283922462941847 31.252217468433685 6.656784492588368 -32.50443493686737"/>
        </metadata>
        <g stroke-width="0.3" fill="#000000" fill-opacity="0.000" class="geometry" id="img-06117336-22">
          <g class="color_LCHab{Float32}(70.0f0,60.0f0,240.0f0)" stroke-dasharray="none" stroke="#00BFFF" id="img-06117336-23">
            <g transform="translate(38.6,52.8)" id="img-06117336-24">
              <path fill="none" d="M-17.9,-43.18 L-17.15,-5.99 -16.41,-1.82 -15.66,-0.54 -14.91,0.04 -14.17,0.36 -13.42,0.56 -12.68,0.7 -11.93,0.8 -11.19,0.87 -10.44,0.93 -9.69,0.98 -8.95,1.02 -8.2,1.05 -7.46,1.08 -6.71,1.1 -5.97,1.12 -5.22,1.14 -4.47,1.16 -3.73,1.17 -2.98,1.19 -2.24,1.2 -1.49,1.21 -0.75,1.22 0,1.23 0.75,1.24 1.49,1.25 2.24,1.26 2.98,1.26 3.73,1.27 4.47,1.28 5.22,1.28 5.97,1.29 6.71,1.3 7.46,1.3 8.2,1.31 8.95,1.31 9.69,1.31 10.44,1.32 11.19,1.32 11.93,1.33 12.68,1.33 13.42,1.33 14.17,1.34 14.91,1.34 15.66,1.35 16.41,1.35 17.15,1.35 17.9,1.35 " class="primitive"/>
            </g>
          </g>
        </g>
      </g>
    </g>
  </g>
  <g class="guide ylabels" font-size="2.82" font-family="'PT Sans Caption','Helvetica Neue','Helvetica',sans-serif" fill="#6C606B" id="img-06117336-25">
    <g transform="translate(16.96,54.91)" id="img-06117336-26">
      <g class="primitive">
        <text text-anchor="end" dy="0.35em">0</text>
      </g>
    </g>
    <g transform="translate(16.96,38.94)" id="img-06117336-27">
      <g class="primitive">
        <text text-anchor="end" dy="0.35em">10</text>
      </g>
    </g>
    <g transform="translate(16.96,22.97)" id="img-06117336-28">
      <g class="primitive">
        <text text-anchor="end" dy="0.35em">20</text>
      </g>
    </g>
    <g transform="translate(16.96,7)" id="img-06117336-29">
      <g class="primitive">
        <text text-anchor="end" dy="0.35em">30</text>
      </g>
    </g>
  </g>
  <g font-size="3.88" font-family="'PT Sans','Helvetica Neue','Helvetica',sans-serif" fill="#564A55" stroke="#000000" stroke-opacity="0.000" id="img-06117336-30">
    <g transform="translate(8.81,28.96)" id="img-06117336-31">
      <g class="primitive">
        <text text-anchor="middle" dy="0.35em" transform="rotate(-90,0, 2)">hazard ratio</text>
      </g>
    </g>
  </g>
</g>
<defs>
  <clipPath id="img-06117336-4">
    <path d="M17.96,5 L58.5,5 58.5,56.91 17.96,56.91 " />
  </clipPath>
</defs>
</svg>
